# 3ds Max Wavefront OBJ Exporter v0.97b - (c)2007 guruware
# File Created: 13.09.2015 03:27:59

mtllib 3d-model.mtl

#
# object Component_1_004
#

v  -4675.6855 0.0000 4675.6846
v  -0.0005 8098.5225 0.0020
v  -4675.6841 0.0002 -4675.6831
# 3 vertices

vn -0.8660 0.5000 -0.0000
# 1 vertex normals

vt 1.0000 -0.0000 0.0000
vt 0.5000 1.0000 0.0000
vt 0.0000 0.0000 0.0000
# 3 texture coords

g Component_1_004
usemtl wire_006134006
s off
f 1/1/1 2/2/1 3/3/1 
# 0 polygons - 1 triangles

#
# object Component_1_003
#

v  4675.6860 -0.0001 -4675.6836
v  0.0010 8098.5215 -0.0005
v  4675.6855 0.0005 4675.6846
# 3 vertices

vn 0.8660 0.5000 0.0000
# 1 vertex normals

vt 1.0000 -0.0000 0.0000
vt 0.5000 1.0000 0.0000
vt 0.0000 0.0000 0.0000
# 3 texture coords

g Component_1_003
usemtl wire_224198087
s off
f 4/4/2 5/5/2 6/6/2 
# 0 polygons - 1 triangles

#
# object Component_1_002
#

v  -4675.6826 0.0000 -4675.6860
v  -0.0015 8098.5215 0.0015
v  4675.6855 0.0000 -4675.6807
# 3 vertices

vn 0.0000 0.5000 -0.8660
# 1 vertex normals

vt 1.0000 -0.0000 0.0000
vt 0.5000 1.0000 0.0000
vt 0.0000 0.0000 0.0000
# 3 texture coords

g Component_1_002
usemtl wire_177028149
s off
f 7/7/3 8/8/3 9/9/3 
# 0 polygons - 1 triangles

#
# object Component_1_001
#

v  4675.6851 0.0002 4675.6846
v  0.0010 8098.5220 -0.0005
v  -4675.6831 0.0002 4675.6846
# 3 vertices

vn 0.0000 0.5000 0.8660
# 1 vertex normals

vt 1.0000 -0.0000 0.0000
vt 0.5000 1.0000 0.0000
vt 0.0000 0.0000 0.0000
# 3 texture coords

g Component_1_001
usemtl wire_224086086
s off
f 10/10/4 11/11/4 12/12/4 
# 0 polygons - 1 triangles

#
# object Layer0_001
#

v  -4675.6831 0.0002 4675.6851
v  -4675.6831 0.0002 -4675.6831
v  4675.6851 0.0002 -4675.6831
v  4675.6851 0.0002 4675.6851
# 4 vertices

vn -0.0000 -1.0000 0.0000
# 1 vertex normals

vt 0.0000 0.0000 0.0000
# 1 texture coords

g Layer0_001
usemtl wire_134110008
s off
f 13/13/5 14/13/5 15/13/5 16/13/5 
# 1 polygons

